<svg xmlns="http://www.w3.org/2000/svg" viewBox="0 0 960 720" role="img" aria-labelledby="title desc">
  <title id="title">Study timelapse preview</title>
  <desc id="desc">A desk, notebook, clock, camera frame, and stacked motion frames representing study timelapse recording.</desc>
  <defs>
    <linearGradient id="sky" x1="0" x2="1" y1="0" y2="1">
      <stop offset="0" stop-color="#e0f2fe"/>
      <stop offset="0.56" stop-color="#ecfdf5"/>
      <stop offset="1" stop-color="#fff7ed"/>
    </linearGradient>
    <linearGradient id="desk" x1="0" x2="1">
      <stop offset="0" stop-color="#14532d"/>
      <stop offset="1" stop-color="#0f766e"/>
    </linearGradient>
    <filter id="shadow" x="-20%" y="-20%" width="140%" height="140%">
      <feDropShadow dx="0" dy="20" stdDeviation="24" flood-color="#0f172a" flood-opacity=".16"/>
    </filter>
  </defs>
  <rect width="960" height="720" fill="url(#sky)"/>
  <circle cx="806" cy="122" r="72" fill="#fbbf24" opacity=".72"/>
  <rect x="86" y="110" width="788" height="474" rx="36" fill="#ffffff" filter="url(#shadow)"/>
  <rect x="124" y="150" width="712" height="394" rx="24" fill="#f8fafc"/>
  <path d="M124 441h712v79a24 24 0 0 1-24 24H148a24 24 0 0 1-24-24z" fill="url(#desk)"/>
  <rect x="210" y="218" width="244" height="172" rx="18" fill="#ffffff" stroke="#cbd5e1" stroke-width="4"/>
  <path d="M240 262h160M240 304h138M240 346h116" stroke="#64748b" stroke-width="14" stroke-linecap="round"/>
  <rect x="474" y="246" width="240" height="148" rx="20" fill="#0f172a"/>
  <rect x="500" y="272" width="188" height="96" rx="14" fill="#22c55e"/>
  <circle cx="594" cy="320" r="34" fill="#dcfce7"/>
  <path d="M586 302l32 18-32 18z" fill="#16a34a"/>
  <g opacity=".62">
    <rect x="548" y="196" width="214" height="128" rx="20" fill="none" stroke="#14b8a6" stroke-width="5"/>
    <rect x="584" y="170" width="214" height="128" rx="20" fill="none" stroke="#f97316" stroke-width="5"/>
    <rect x="620" y="144" width="214" height="128" rx="20" fill="none" stroke="#2563eb" stroke-width="5"/>
  </g>
  <rect x="242" y="428" width="292" height="80" rx="18" fill="#fefce8"/>
  <path d="M274 468h226" stroke="#ca8a04" stroke-width="12" stroke-linecap="round"/>
  <circle cx="678" cy="474" r="42" fill="#ecfeff"/>
  <circle cx="678" cy="474" r="30" fill="none" stroke="#0891b2" stroke-width="8"/>
  <path d="M678 452v25l19 12" stroke="#0891b2" stroke-width="8" stroke-linecap="round"/>
  <path d="M132 620c176-28 318-26 458 0 78 14 158 18 250-4" fill="none" stroke="#0f766e" stroke-width="16" stroke-linecap="round" opacity=".24"/>
</svg>
